<svg fill="none" viewBox="0 0 76 32" xmlns="http://www.w3.org/2000/svg">
    <path clip-rule="evenodd" d="M8.704 5.44C3.712 5.44-.032 8.48 0 13.76h4.64C4.576 11.648 5.92 9.6 8.704 9.6c2.112 0 3.456 1.408 3.456 3.2 0 1.856-1.472 2.88-3.84 4.032C5.216 18.336 3.36 19.04 0 20.16v6.08h17.28v-4.16H6.272c1.604-.669 3.166-1.403 4.576-2.08 3.744-1.792 5.952-3.808 5.952-7.424 0-4.352-3.264-7.136-8.096-7.136zM24.32 9.92h8.96V5.76H19.84v20.48h4.48V9.92zm16-4.16h-4.48v20.48h4.448l8.352-13.088V26.24h4.48V5.76h-4.48l-8.32 13.088V5.76zm35.296 12.8h-4.64c-.704 2.272-2.848 3.84-5.376 3.84-3.68 0-6.08-3.168-6.08-6.4s2.336-6.4 6.208-6.4c2.56 0 4.544 1.568 5.248 3.84h4.64c-.672-4.576-4.288-8-10.016-8-6.336 0-10.56 4.448-10.56 10.56s4.224 10.56 10.56 10.56c5.728 0 9.344-3.36 10.016-8z"
        fill="#262626"
        fill-rule="evenodd"></path>
</svg>